<?xml version="1.0" encoding="UTF-8" standalone="no"?>
<!DOCTYPE svg PUBLIC "-//W3C//DTD SVG 1.0//EN" "http://www.w3.org/TR/2001/PR-SVG-20010719/DTD/svg10.dtd">
<svg width="18cm" height="18cm" viewBox="7 1 18 18">
  <rect style="fill: #000000" x="7.6876" y="1.25" width="17.35" height="17.55" rx="1.17549e-38" ry="1.17549e-38"/>
  <rect style="fill: none; fill-opacity:0; stroke-width: 0.001; stroke: #000000" x="7.6876" y="1.25" width="17.35" height="17.55" rx="1.17549e-38" ry="1.17549e-38"/>
  <line style="fill: none; fill-opacity:0; stroke-width: 0.2; stroke: #155d15" x1="7.7376" y1="3.95" x2="25.1376" y2="3.95"/>
  <line style="fill: none; fill-opacity:0; stroke-width: 0.2; stroke: #155d15" x1="7.55289" y1="7.95029" x2="25.0029" y2="8.00029"/>
  <line style="fill: none; fill-opacity:0; stroke-width: 0.2; stroke: #155d15" x1="7.60289" y1="11.8503" x2="25.0529" y2="11.9003"/>
  <line style="fill: none; fill-opacity:0; stroke-width: 0.2; stroke: #155d15" x1="22.3876" y1="18.75" x2="22.3029" y2="1.20029"/>
  <line style="fill: none; fill-opacity:0; stroke-width: 0.2; stroke: #155d15" x1="18.5376" y1="18.65" x2="18.5376" y2="1.2"/>
  <line style="fill: none; fill-opacity:0; stroke-width: 0.2; stroke: #155d15" x1="10.5527" y1="18.6496" x2="10.4376" y2="1.2"/>
  <line style="fill: none; fill-opacity:0; stroke-width: 0.2; stroke: #155d15" x1="14.6527" y1="18.6996" x2="14.6376" y2="1.2"/>
  <line style="fill: none; fill-opacity:0; stroke-width: 0.2; stroke: #155d15" x1="7.75289" y1="15.5003" x2="25.2029" y2="15.5503"/>
  <polygon style="fill: #00ff00" points="16.6876,9.9 22.9876,4.45 24.7876,7.85 "/>
  <polygon style="fill: none; fill-opacity:0; stroke-width: 0.1; stroke: #00ff00" points="16.6876,9.9 22.9876,4.45 24.7876,7.85 "/>
  <polygon style="fill: #155d15" points="16.6449,9.87891 22.9449,4.42891 24.0376,6 "/>
  <polygon style="fill: none; fill-opacity:0; stroke-width: 0.1; stroke: #155d15" points="16.6449,9.87891 22.9449,4.42891 24.0376,6 "/>
  <polygon style="fill: #ffffff" points="16.5876,10.05 24.4376,7.4 24.7376,8.05 "/>
  <polygon style="fill: none; fill-opacity:0; stroke-width: 0.1; stroke: #ffffff" points="16.5876,10.05 24.4376,7.4 24.7376,8.05 "/>
  <ellipse style="fill: none; fill-opacity:0; stroke-width: 0.2; stroke: #00ff00" cx="16.425" cy="10.075" rx="8.575" ry="8.575"/>
  <ellipse style="fill: none; fill-opacity:0; stroke-width: 0.2; stroke: #00ff00" cx="16.425" cy="10.025" rx="7.275" ry="7.275"/>
  <ellipse style="fill: none; fill-opacity:0; stroke-width: 0.2; stroke: #00ff00" cx="16.44" cy="9.975" rx="5.575" ry="5.575"/>
  <ellipse style="fill: none; fill-opacity:0; stroke-width: 0.2; stroke: #00ff00" cx="16.44" cy="9.975" rx="3.725" ry="3.725"/>
  <ellipse style="fill: none; fill-opacity:0; stroke-width: 0.2; stroke: #00ff00" cx="16.44" cy="9.975" rx="1.825" ry="1.825"/>
  <line style="fill: none; fill-opacity:0; stroke-width: 0.1; stroke: #000000" x1="16.44" y1="9.975" x2="16.0958" y2="9.63078"/>
  <polygon style="fill: #000000" points="16.3609,9.89594 16.8913,10.0727 16.6261,10.1611 16.5377,10.4263 "/>
  <polygon style="fill: none; fill-opacity:0; stroke-width: 0.1; stroke: #000000" points="16.3609,9.89594 16.8913,10.0727 16.6261,10.1611 16.5377,10.4263 "/>
  <line style="fill: none; fill-opacity:0; stroke-width: 0.1; stroke: #000000" x1="16.44" y1="9.975" x2="16.44" y2="9.975"/>
  <polygon style="fill: #000000" points="16.44,9.975 15.94,10.225 16.065,9.975 15.94,9.725 "/>
  <polygon style="fill: none; fill-opacity:0; stroke-width: 0.1; stroke: #000000" points="16.44,9.975 15.94,10.225 16.065,9.975 15.94,9.725 "/>
  <line style="fill: none; fill-opacity:0; stroke-width: 0.2; stroke: #ffffff" x1="11.9376" y1="10.9506" x2="11.9167" y2="14.4518"/>
  <path style="fill: #ffffff" d="M 11.6042 14.3018 C 12.6042,14.3018 11.2542,15.2518 10.2542,15.2518 C 9.25418,15.2518 10.6042,14.3018 11.6042,14.3018z"/>
  <path style="fill: none; fill-opacity:0; stroke-width: 0.1; stroke: #ffffff" d="M 11.6042 14.3018 C 12.6042,14.3018 11.2542,15.2518 10.2542,15.2518 C 9.25418,15.2518 10.6042,14.3018 11.6042,14.3018"/>
  <line style="fill: none; fill-opacity:0; stroke-width: 0.2; stroke: #ffffff" x1="11.8876" y1="11.4006" x2="12.7876" y2="12.2006"/>
  <line style="fill: none; fill-opacity:0; stroke-width: 0.2; stroke: #ffffff" x1="14.7376" y1="4.0506" x2="14.7167" y2="7.55177"/>
  <path style="fill: #ffffff" d="M 14.4042 7.40177 C 15.4042,7.40177 14.0542,8.35177 13.0542,8.35177 C 12.0542,8.35177 13.4042,7.40177 14.4042,7.40177z"/>
  <path style="fill: none; fill-opacity:0; stroke-width: 0.1; stroke: #ffffff" d="M 14.4042 7.40177 C 15.4042,7.40177 14.0542,8.35177 13.0542,8.35177 C 12.0542,8.35177 13.4042,7.40177 14.4042,7.40177"/>
  <line style="fill: none; fill-opacity:0; stroke-width: 0.2; stroke: #ffffff" x1="14.6876" y1="4.5006" x2="15.5876" y2="5.3006"/>
  <line style="fill: none; fill-opacity:0; stroke-width: 0.2; stroke: #ffffff" x1="20.6876" y1="10.35" x2="20.6667" y2="13.8512"/>
  <path style="fill: #ffffff" d="M 20.3542 13.7012 C 21.3542,13.7012 20.0042,14.6512 19.0042,14.6512 C 18.0042,14.6512 19.3542,13.7012 20.3542,13.7012z"/>
  <path style="fill: none; fill-opacity:0; stroke-width: 0.1; stroke: #ffffff" d="M 20.3542 13.7012 C 21.3542,13.7012 20.0042,14.6512 19.0042,14.6512 C 18.0042,14.6512 19.3542,13.7012 20.3542,13.7012"/>
  <line style="fill: none; fill-opacity:0; stroke-width: 0.2; stroke: #ffffff" x1="20.6376" y1="10.8" x2="21.5376" y2="11.6"/>
  <line style="fill: none; fill-opacity:0; stroke-width: 0.2; stroke: #ffffff" x1="20.6771" y1="12.1006" x2="21.5438" y2="12.8412"/>
</svg>
